<?xml version="1.0"?>
<svg xmlns="http://www.w3.org/2000/svg" xmlns:xlink="http://www.w3.org/1999/xlink" xmlns:svgjs="http://svgjs.com/svgjs" version="1.1" width="512" height="512" x="0" y="0" viewBox="0 0 74 74" style="enable-background:new 0 0 512 512" xml:space="preserve" class=""><g><path xmlns="http://www.w3.org/2000/svg" d="m62.541 49.07a.968.968 0 0 1 -.243-.03 1 1 0 0 1 -.728-1.213l.71-2.84a1 1 0 0 1 1.94.486l-.71 2.839a1 1 0 0 1 -.969.758z" fill="#3743ff" data-original="#000000" style=""/><path xmlns="http://www.w3.org/2000/svg" d="m59.04 63a1 1 0 0 1 -.243-.03l-35.04-8.79a1 1 0 0 1 -.727-1.213l9.491-37.85a.994.994 0 0 1 .456-.615l12.279-7.35a.993.993 0 0 1 .757-.112l25.23 6.33a1 1 0 0 1 .727 1.213l-3.6 14.341a1 1 0 1 1 -1.939-.487l3.355-13.371-23.858-5.985-11.569 6.924-9.146 36.478 33.1 8.3 1.538-6.13a1 1 0 1 1 1.939.486l-1.78 7.1a1 1 0 0 1 -.97.757z" fill="#3743ff" data-original="#000000" style=""/><path xmlns="http://www.w3.org/2000/svg" d="m64.961 39.41a1.033 1.033 0 0 1 -.245-.03 1 1 0 0 1 -.726-1.214l.731-2.9a1 1 0 1 1 1.939.488l-.73 2.9a1 1 0 0 1 -.969.756z" fill="#3743ff" data-original="#000000" style=""/><path xmlns="http://www.w3.org/2000/svg" d="m43.307 18.821a.97.97 0 0 1 -.244-.03l-9.812-2.461a1 1 0 1 1 .486-1.94l8.843 2.218 2.22-8.842a1 1 0 1 1 1.939.486l-2.461 9.812a1 1 0 0 1 -.969.757z" fill="#3743ff" data-original="#000000" style=""/><path xmlns="http://www.w3.org/2000/svg" d="m55.428 53.151a.97.97 0 0 1 -.244-.03l-23.584-5.921a1 1 0 0 1 .486-1.94l23.584 5.922a1 1 0 0 1 -.242 1.969z" fill="#3743ff" data-original="#000000" style=""/><path xmlns="http://www.w3.org/2000/svg" d="m57.361 45.441a.97.97 0 0 1 -.244-.03l-23.589-5.917a1 1 0 0 1 .487-1.939l23.585 5.917a1 1 0 0 1 -.243 1.969z" fill="#3743ff" data-original="#000000" style=""/><path xmlns="http://www.w3.org/2000/svg" d="m59.3 37.731a.97.97 0 0 1 -.244-.03l-23.593-5.917a1 1 0 1 1 .486-1.939l23.588 5.917a1 1 0 0 1 -.242 1.969z" fill="#3743ff" data-original="#000000" style=""/><path xmlns="http://www.w3.org/2000/svg" d="m61.229 30.022a1.019 1.019 0 0 1 -.244-.03l-23.585-5.918a1 1 0 1 1 .487-1.939l23.589 5.917a1 1 0 0 1 -.243 1.97z" fill="#3743ff" data-original="#000000" style=""/><path xmlns="http://www.w3.org/2000/svg" d="m63.163 22.312a1.019 1.019 0 0 1 -.244-.03l-13.897-3.482a1 1 0 0 1 .487-1.94l13.9 3.486a1 1 0 0 1 -.242 1.97z" fill="#3743ff" data-original="#000000" style=""/><path xmlns="http://www.w3.org/2000/svg" d="m27.637 60.938h-16.254a1 1 0 1 1 0-2h16.254a1 1 0 0 1 0 2z" fill="#3743ff" data-original="#000000" style=""/><path xmlns="http://www.w3.org/2000/svg" d="m5.746 60.938h-2.486a1 1 0 1 1 0-2h2.486a1 1 0 0 1 0 2z" fill="#3743ff" data-original="#000000" style=""/><path xmlns="http://www.w3.org/2000/svg" d="m35.85 66.991h-16.25a1 1 0 0 1 0-2h16.25a1 1 0 1 1 0 2z" fill="#3743ff" data-original="#000000" style=""/><path xmlns="http://www.w3.org/2000/svg" d="m13.959 66.991h-2.486a1 1 0 1 1 0-2h2.486a1 1 0 1 1 0 2z" fill="#3743ff" data-original="#000000" style=""/><path xmlns="http://www.w3.org/2000/svg" d="m20.312 48.773h-10.512a1 1 0 0 1 0-2h10.512a1 1 0 1 1 0 2z" fill="#3743ff" data-original="#000000" style=""/><path xmlns="http://www.w3.org/2000/svg" d="m4.766 48.773h-1.766a1 1 0 0 1 0-2h1.766a1 1 0 0 1 0 2z" fill="#3743ff" data-original="#000000" style=""/></g></svg>
