<svg xmlns="http://www.w3.org/2000/svg" width="20.582" height="21.001" viewBox="0 0 20.582 21.001">
  <g id="surface1" transform="translate(-0.089 -4.001)">
    <path id="Path_197" data-name="Path 197" d="M.475,5.8a.85.85,0,0,0-.013.126v.864a.856.856,0,0,0,.556.8V8.862a.8.8,0,0,0,.761.8V17a.8.8,0,0,0-.761.8v1.267a.866.866,0,0,0-.556.807v.845A.286.286,0,0,0,.747,21H20a.285.285,0,0,0,.285-.285v-.845a.866.866,0,0,0-.556-.807V17.79a.8.8,0,0,0-.761-.8V9.658a.8.8,0,0,0,.761-.8V7.591a.857.857,0,0,0,.556-.8V5.933a.83.83,0,0,0-.013-.126.284.284,0,0,0,.23-.52L10.5.034a.286.286,0,0,0-.267,0l-10,5.249a.285.285,0,0,0,.234.52ZM1.589,8.086v-.44H4.881v.436ZM8.919,9.66V17a.8.8,0,0,0-.761.8v1.214H5.448V17.8a.8.8,0,0,0-.761-.8V9.658a.8.8,0,0,0,.761-.8V7.646H8.154V8.86a.8.8,0,0,0,.761.8Zm-.19-1.574v-.44h3.292v.436ZM16.059,9.66V17a.8.8,0,0,0-.761.8v1.214h-2.71V17.8a.8.8,0,0,0-.761-.8V9.658a.8.8,0,0,0,.761-.8V7.646h2.706V8.86a.8.8,0,0,0,.761.8Zm-.19-1.574v-.44h3.292v.436Zm3.292,10.49v.436h-3.3v-.436Zm-7.14,0v.436h-3.3v-.436ZM9.2,9.093H8.953a.228.228,0,0,1-.228-.228V8.657h3.292v.208a.228.228,0,0,1-.228.228Zm2.057.571V17H9.486V9.663ZM9.2,17.569h2.588a.228.228,0,0,1,.228.228V18H8.725V17.8a.228.228,0,0,1,.228-.228ZM4.877,18.576v.436H1.585v-.436ZM1.585,8.87V8.657H4.877v.208a.228.228,0,0,1-.228.228H1.807a.228.228,0,0,1-.223-.23Zm2.531.8V17H2.346V9.663ZM1.585,17.8a.228.228,0,0,1,.228-.228H4.649a.228.228,0,0,1,.228.228v.207H1.585Zm18.129,2.08v.559H1.029v-.559a.3.3,0,0,1,.295-.3H19.418a.3.3,0,0,1,.295.289Zm-.556-2.08v.207H15.865V17.8a.228.228,0,0,1,.228-.228h2.841a.228.228,0,0,1,.223.223ZM16.626,17V9.663H18.4V17ZM19.158,8.87a.228.228,0,0,1-.228.228H16.1a.228.228,0,0,1-.228-.228V8.657h3.292ZM10.371.6l8.5,4.468h-17ZM1.029,5.933a.285.285,0,0,1,.285-.285H19.428a.285.285,0,0,1,.285.285V6.8a.285.285,0,0,1-.285.285H1.314A.285.285,0,0,1,1.029,6.8Zm0,0" transform="translate(0 4)" fill="#505b74"/>
  </g>
</svg>
