<svg id="Group_2844" data-name="Group 2844" xmlns="http://www.w3.org/2000/svg" width="28.642" height="25.532" viewBox="0 0 28.642 25.532">
  <path id="Path_194" data-name="Path 194" d="M191.27,36.976l-17.542-3.712a1.383,1.383,0,0,0-1.635,1.064l-.333,2.142L192,40.753l.333-2.142A1.383,1.383,0,0,0,191.27,36.976Z" transform="translate(-163.721 -33.234)" fill="#fff"/>
  <path id="Path_195" data-name="Path 195" d="M20.172,168.836a1.4,1.4,0,0,0-1.714-.969l-3.33.924L7.277,167.13l-.863,4.079-5.395,1.5A1.4,1.4,0,0,0,.05,174.42l3.04,10.955a1.4,1.4,0,0,0,1.714.969l17.439-4.839a1.4,1.4,0,0,0,.969-1.714l-.522-1.881,1.956.414a1.383,1.383,0,0,0,1.635-1.064l1.237-5.847-7.045-1.491Zm2.014,5.568.431-2.038a.569.569,0,0,1,.673-.438l2.038.432a.569.569,0,0,1,.438.673l-.431,2.038a.569.569,0,0,1-.673.438l-2.038-.431A.569.569,0,0,1,22.186,174.4Zm-20.863-.6,4.826-1.339,11.387-3.16,1.225-.34a.255.255,0,0,1,.067-.009.263.263,0,0,1,.25.188l.144.518.451,1.624L1.738,176.259l-.595-2.142A.261.261,0,0,1,1.323,173.8Zm20.8,6.295a.262.262,0,0,1-.179.317L4.5,185.251a.253.253,0,0,1-.067.009.263.263,0,0,1-.25-.188l-1.773-6.39L20.345,173.7l1.094,3.941Z" transform="translate(0 -160.863)" fill="#fff"/>
  <path id="Path_196" data-name="Path 196" d="M92.208,445.017a.569.569,0,0,0-.7-.4l-2.037.565a.569.569,0,0,0-.395.7l.565,2.036a.569.569,0,0,0,.7.395l2.037-.565a.569.569,0,0,0,.4-.7Z" transform="translate(-84.889 -425.349)" fill="#fff"/>
</svg>
