<svg xmlns="http://www.w3.org/2000/svg" viewBox="0 0 223.906 35.3"><defs><style>.cls-1{fill:#ea4b37}</style><radialGradient id="radial-gradient" cx="20.352" cy="18.258" r="16.109" gradientUnits="userSpaceOnUse"><stop offset="0" stop-color="#fff"/><stop offset=".139" stop-color="#c9deea"/><stop offset=".338" stop-color="#83b2cf"/><stop offset=".517" stop-color="#4a8fba"/><stop offset=".67" stop-color="#2276aa"/><stop offset=".791" stop-color="#0967a1"/><stop offset=".864" stop-color="#00619d"/><stop offset=".967" stop-color="#00609c"/></radialGradient></defs><g id="Group_106" data-name="Group 106"><path id="Path_257" data-name="Path 257" class="cls-1" d="M220.5 20.762c0-4.13-2.885-6.562-6.11-6.562a4.394 4.394 0 0 0-4.243 2.319 4.394 4.394 0 0 0-4.237-2.319c-3.281 0-6.11 2.433-6.11 6.562v12.446h4.13V21.215c0-1.527.226-3.394 2.037-3.394S208 19.631 208 21.215v5.827h4.13v-5.827c0-1.527.283-3.394 2.037-3.394 1.81 0 2.037 1.81 2.037 3.394v11.993h4.186V20.762z" transform="translate(-86.715 -6.167)"/><path id="Path_258" data-name="Path 258" class="cls-1" d="M289.012 16.633a12.89 12.89 0 0 1-1.754-.849.869.869 0 0 1-.509-.792V14.2h-4.017v1.131c0 2.319 1.188 2.829 3.9 4.3l1.81.962a3.039 3.039 0 0 1 1.641 3v2.657c0 2.15-1.131 3.451-2.885 3.451a2.777 2.777 0 0 1-2.829-2.546l-4.073-.113v.226a5.543 5.543 0 0 0 1.131 3.507 6.931 6.931 0 0 0 5.827 2.546c3.507 0 6.958-2.263 6.958-6.562v-3.677c.004-3.564-1.749-5.148-5.2-6.449z" transform="translate(-121.676 -6.167)"/><path id="Path_259" data-name="Path 259" class="cls-1" d="M261.4 21.088c0-2.546-.17-3.168-.509-3.734a3.687 3.687 0 0 0-1.471-1.075l-1.018-.453a.99.99 0 0 1-.566-.849V14.3h-4.13v1.131c0 1.131.17 1.923 1.018 2.433 1.81.962 1.7.905 1.81.962a.991.991 0 0 1 .622.962v1.131a6.033 6.033 0 0 0-5.261 6.11c0 4.073 3.224 6.279 7.015 6.279s7.015-2.206 7.015-6.279a5.781 5.781 0 0 0-4.525-5.941zm-2.433 8.6a2.668 2.668 0 1 1 2.885-2.659 2.562 2.562 0 0 1-2.881 2.658z" transform="translate(-109.342 -6.21)"/><path id="Path_260" data-name="Path 260" class="cls-1" d="M377.915 14.2c-3.507 0-7.015 2.263-7.015 6.562v12.446h4.13V21.215c0-2.15 1.131-3.451 2.885-3.451s2.885 1.3 2.885 3.451v11.823h4.13V20.762c0-4.299-3.508-6.562-7.015-6.562z" transform="translate(-161.023 -6.167)"/><path id="Path_261" data-name="Path 261" class="cls-1" d="M151.529 20.423c-.226-4.073-3.62-6.223-7.015-6.223-3.507 0-7.015 2.263-7.015 6.562v.566h4.13v-.113c0-2.15 1.131-3.451 2.885-3.451s2.885 1.3 2.885 3.451v4.978c0 2.15-1.075 3.451-2.885 3.451-1.754 0-2.885-1.3-2.885-3.451v-.283H137.5v.735c0 4.3 3.564 6.562 7.015 6.562 3.507 0 7.015-2.263 7.015-6.562v-5.883z" transform="translate(-59.659 -6.167)"/><path id="Path_262" data-name="Path 262" class="cls-1" d="M176.463 27.155a6.271 6.271 0 0 0 6.223-6.392c0-3.96-3.225-6.562-7.071-6.562s-7.015 2.6-7.015 6.449v5.15c0 4.808 1.81 7.467 6.619 7.467h6v-3.454h-5.827c-1.867 0-2.659-1.245-2.659-3.564V25.8a5.52 5.52 0 0 0 3.73 1.355zm-.849-9.334a2.837 2.837 0 0 1 2.829 2.829 2.8 2.8 0 0 1-2.829 2.829 2.837 2.837 0 0 1-2.829-2.829 2.874 2.874 0 0 1 2.83-2.829z" transform="translate(-73.165 -6.167)"/><path id="Path_263" data-name="Path 263" class="cls-1" d="M318.163 20.31a5.52 5.52 0 0 0-3.734 1.358v-.453c0-2.319.735-3.564 2.659-3.564h5.827V14.2h-6c-4.808 0-6.619 2.6-6.619 7.467v5.148c0 3.847 3.224 6.449 7.015 6.449s7.071-2.6 7.071-6.562a6.271 6.271 0 0 0-6.219-6.392zm-.849 9.278a2.837 2.837 0 0 1-2.829-2.829 2.829 2.829 0 1 1 5.657 0 2.767 2.767 0 0 1-2.827 2.828z" transform="translate(-134.705 -6.167)"/><path id="Path_264" data-name="Path 264" class="cls-1" d="M114.407 20.862a4.778 4.778 0 0 0-3.621 1.3V21.6c0-2.376.622-3.79 2.659-3.79h5.487V14.3h-5.657c-4.7 0-6.562 2.546-6.675 7.128v11.88h4.186V28.9c0-.283.057-1.754.057-1.754A2.984 2.984 0 0 1 113.9 24.2a2.652 2.652 0 0 1 2.715 2.885v6.223h4.185v-6.166a6.051 6.051 0 0 0-6.393-6.28z" transform="translate(-46.239 -6.21)"/><path id="Path_265" data-name="Path 265" d="M42.176 30.435l-1.528-.735a4.886 4.886 0 0 1-.905-.566 17.257 17.257 0 0 0 4.243-11.484A17.673 17.673 0 0 0 26.336 0 17.042 17.042 0 0 0 20 1.188v3.225A14.405 14.405 0 0 1 26.336 3a14.752 14.752 0 0 1 14.708 14.707A14.4 14.4 0 0 1 37.65 27.1a5.371 5.371 0 0 1-.566-.962l-.735-1.527a.855.855 0 0 0-1.641.283v6.276a.87.87 0 0 0 .849.849h6.279a.835.835 0 0 0 .34-1.584z" transform="translate(-8.629)" fill="#8a8a8d"/><g id="Group_105" data-name="Group 105" transform="translate(5.883 5.94)"><path id="Path_266" data-name="Path 266" d="M22.067 10.5a11.817 11.817 0 0 0-6.279 1.81v2.6a2.867 2.867 0 0 1-4.413 2.433 11.774 11.774 0 0 0 10.692 16.69 11.569 11.569 0 0 0 6.333-1.866v-2.716a2.867 2.867 0 0 1 4.412-2.433 11.273 11.273 0 0 0 1.018-4.809A11.71 11.71 0 0 0 22.067 10.5z" transform="translate(-10.3 -10.5)" fill="url(#radial-gradient)"/></g><path id="Path_267" data-name="Path 267" d="M17.607 34.834A14.752 14.752 0 0 1 2.9 20.125a5.489 5.489 0 0 1 .057-.962v-.226c0-.226.057-.509.057-.735v-.17a14.891 14.891 0 0 1 2.037-5.487 13.288 13.288 0 0 1 1.3-1.81 5.372 5.372 0 0 1 .566.962l.735 1.527a.837.837 0 0 0 1.584-.4V6.549a.87.87 0 0 0-.85-.849h-6.28a.837.837 0 0 0-.4 1.584l1.527.735a8.516 8.516 0 0 1 .962.566 15.452 15.452 0 0 0-2.485 3.847 15.73 15.73 0 0 0-.905 2.263c-.057.113-.057.17-.113.283-.113.283-.17.622-.283.962 0 .057-.057.17-.057.226A8.01 8.01 0 0 0 .126 17.3a.424.424 0 0 1-.057.283c-.057.283-.057.622-.113.905a.718.718 0 0 1-.057.339 10.918 10.918 0 0 1 .057 1.3 17.673 17.673 0 0 0 17.65 17.65 17.042 17.042 0 0 0 6.336-1.188v-3.226a14.891 14.891 0 0 1-6.335 1.471z" transform="translate(.1 -2.475)" fill="#00609c"/><path id="Path_268" data-name="Path 268" class="cls-1" d="M348.294 18.513V14.1h-4.016v10.466l4.016-1.131v-1.3a2.971 2.971 0 0 1 2.093 2.829v1.186c0 2.15-1.075 3.451-2.885 3.451a2.777 2.777 0 0 1-2.828-2.546l-4.074 1.188c.735 3.281 3.451 5.035 6.958 5.035s6.958-2.263 6.958-6.562v-2.15c0-3.111-1.81-5.657-6.223-6.053" transform="translate(-147.864 -6.124)"/><path id="Path_269" data-name="Path 269" class="cls-1" d="M84.094 18.813V14.4h-4.017v10.466l4.017-1.131v-1.3a2.971 2.971 0 0 1 2.093 2.829v1.186c0 2.15-1.075 3.451-2.885 3.451a2.777 2.777 0 0 1-2.829-2.546L76.4 28.543c.735 3.281 3.451 5.035 6.958 5.035s6.958-2.263 6.958-6.562v-2.15c0-3.055-1.754-5.657-6.223-6.053" transform="translate(-33.124 -6.254)"/></g></svg>