<svg xmlns="http://www.w3.org/2000/svg" width="29.645" height="25.321" viewBox="0 0 29.645 25.321">
  <g id="shop_2_" data-name="shop (2)" transform="translate(0 -37.34)">
    <g id="Group_2835" data-name="Group 2835" transform="translate(0 37.34)">
      <g id="Group_2834" data-name="Group 2834">
        <path id="Path_190" data-name="Path 190" d="M29.6,44.994l-.02-.111c0-.017-.005-.034-.009-.051L27.494,39.81V37.34H2.117v2.47L.072,44.831c0,.02-.007.04-.011.059l-.019.1A3.575,3.575,0,0,0,0,45.545a3.527,3.527,0,0,0,1.853,3.106v14.01h25.94V48.651a3.529,3.529,0,0,0,1.853-3.106A3.574,3.574,0,0,0,29.6,44.994Zm-1.4-.242H23.668l-.546-3.667h3.59ZM3.353,38.575H26.259V39.81H3.353ZM22.6,45.986l.067.448-.365.486a2.294,2.294,0,0,1-3.671,0l-.373-.5-.022-.438Zm-4.425-1.235L18,41.084h3.875l.546,3.667ZM17,45.986h0l.022.448-.366.487a2.294,2.294,0,0,1-3.671,0l-.375-.5.022-.435ZM12.7,44.751l.185-3.667h3.881l.179,3.667Zm-5.464,0,.539-3.667h3.874l-.186,3.667ZM11.4,45.986l-.023.453-.362.482a2.294,2.294,0,0,1-3.671,0l-.356-.474.068-.46Zm-8.463-4.9H6.523l-.539,3.667H1.439Zm-1.655,4.9H5.8l-.1.48-.341.455a2.294,2.294,0,0,1-4.087-.935ZM24.087,61.427H19.145V57.1h.618a.617.617,0,1,0,0-1.234h-.618V51.544h4.941Zm2.47,0H25.322V50.31H17.91V61.427H3.088V49.047a3.529,3.529,0,0,0,3.264-1.384,3.529,3.529,0,0,0,5.647,0,3.529,3.529,0,0,0,5.646,0,3.529,3.529,0,0,0,5.647,0,3.529,3.529,0,0,0,3.264,1.384v12.38Zm-.442-13.588a2.276,2.276,0,0,1-1.835-.918l-.359-.477-.07-.458h4.514A2.3,2.3,0,0,1,26.115,47.839Z" transform="translate(0 -37.34)" fill="#505b74"/>
      </g>
    </g>
    <g id="Group_2837" data-name="Group 2837" transform="translate(4.323 50.31)">
      <g id="Group_2836" data-name="Group 2836">
        <path id="Path_191" data-name="Path 191" d="M74.656,261.348v8.645H87.009v-8.645Zm11.117,7.411H75.892v-6.177h9.881Z" transform="translate(-74.656 -261.348)" fill="#505b74"/>
      </g>
    </g>
    <g id="Group_2839" data-name="Group 2839" transform="translate(12.347 54.633)">
      <g id="Group_2838" data-name="Group 2838">
        <path id="Path_192" data-name="Path 192" d="M215.1,336a.613.613,0,0,0-.437.181l-1.235,1.236a.617.617,0,0,0,.873.872l1.235-1.234A.618.618,0,0,0,215.1,336Z" transform="translate(-213.25 -336.004)" fill="#505b74"/>
      </g>
    </g>
    <g id="Group_2841" data-name="Group 2841" transform="translate(9.877 52.163)">
      <g id="Group_2840" data-name="Group 2840">
        <path id="Path_193" data-name="Path 193" d="M174.9,293.348a.613.613,0,0,0-.437.181l-3.706,3.7a.617.617,0,1,0,.873.873l3.706-3.7a.617.617,0,0,0-.436-1.054Z" transform="translate(-170.578 -293.348)" fill="#505b74"/>
      </g>
    </g>
  </g>
</svg>
