<svg xmlns="http://www.w3.org/2000/svg" width="19.297" height="22.011" viewBox="0 0 19.297 22.011">
  <path id="invoices" d="M38.368,7.418a4.749,4.749,0,1,0,4.749-4.749A4.755,4.755,0,0,0,38.368,7.418Zm8.775,0a4.026,4.026,0,1,1-4.026-4.026A4.03,4.03,0,0,1,47.143,7.418ZM43.117,4.975a.362.362,0,0,1,.362.362V5.49A1.087,1.087,0,0,1,44.2,6.513a.362.362,0,1,1-.724,0,.362.362,0,1,0-.724,0V6.66a.36.36,0,0,0,.254.345l.432.135A1.081,1.081,0,0,1,44.2,8.176v.146a1.087,1.087,0,0,1-.859,1.062V9.5a.362.362,0,1,1-.724,0V9.287a1.086,1.086,0,0,1-.588-.964.362.362,0,1,1,.724,0,.362.362,0,1,0,.724,0V8.176a.36.36,0,0,0-.254-.345L42.793,7.7a1.081,1.081,0,0,1-.762-1.036V6.513a1.087,1.087,0,0,1,.724-1.023V5.337A.362.362,0,0,1,43.117,4.975ZM49,14.564v4.614a2.536,2.536,0,0,1-2.533,2.533H32.533A2.536,2.536,0,0,1,30,19.178V1.447A1.449,1.449,0,0,1,31.447,0h11.76a1.449,1.449,0,0,1,1.447,1.447.362.362,0,0,1-.724,0,.725.725,0,0,0-.724-.724H31.447a.725.725,0,0,0-.724.724V19.178a1.811,1.811,0,0,0,1.809,1.809H44.694a2.525,2.525,0,0,1-.763-1.809V13.524a.362.362,0,0,1,.724,0v5.654a1.809,1.809,0,1,0,3.618,0V14.564a.725.725,0,0,0-.724-.724H46.012a.362.362,0,1,1,0-.724H47.55A1.449,1.449,0,0,1,49,14.564ZM33.166,9.725a.362.362,0,0,1,.362-.362H36.6a.362.362,0,0,1,0,.724H33.528A.362.362,0,0,1,33.166,9.725Zm0-4.071a.362.362,0,0,1,.362-.362H36.6a.362.362,0,0,1,0,.724H33.528A.362.362,0,0,1,33.166,5.654ZM41.489,13.8a.362.362,0,0,1-.362.362h-7.6a.362.362,0,0,1,0-.724h7.6A.362.362,0,0,1,41.489,13.8Zm0,3.8a.362.362,0,0,1-.362.362h-7.6a.362.362,0,0,1,0-.724h7.6A.362.362,0,0,1,41.489,17.595Z" transform="translate(-29.85 0.15)" fill="#505b74" stroke="#505b74" stroke-width="0.3"/>
</svg>
