<svg width="145" height="70" viewBox="0 0 145 70" fill="none" xmlns="http://www.w3.org/2000/svg">
<g clip-path="url(#clip0)">
<path fill-rule="evenodd" clip-rule="evenodd" d="M97.227 31.106V5.67902H88.161V0.520996H112.442V5.67902H103.428V31.106H97.227Z" fill="#3B3B3B"/>
<path fill-rule="evenodd" clip-rule="evenodd" d="M67.111 31.107V0.782013H73.259V25.949H88.63V31.107H67.111Z" fill="#3B3B3B"/>
<path fill-rule="evenodd" clip-rule="evenodd" d="M43.56 31.628C39.9137 31.5855 36.4314 30.1064 33.869 27.512C31.16 24.75 29.805 20.895 29.805 16.049C29.7261 13.3405 30.2051 10.6447 31.212 8.12901C31.8909 6.56858 32.864 5.15349 34.078 3.96101C35.1805 2.7622 36.5321 1.81945 38.038 1.19902C40.1378 0.348484 42.3903 -0.0600306 44.655 -0.000994674C49.188 -0.000994674 52.783 1.406 55.493 4.167C58.202 6.981 59.557 10.836 59.557 15.838C59.557 20.788 58.202 24.644 55.545 27.457C54.3803 28.735 52.9653 29.7599 51.3878 30.468C49.8103 31.1761 48.104 31.5522 46.375 31.573C46.1521 31.6162 45.9249 31.6336 45.698 31.625V26.31H45.906C50.543 26.049 54.606 19.693 53.201 15.733H49.814V6.82301H47.469V15.733H41.477V6.82301H39.341V15.733H36.215C34.235 15.733 36.892 25.424 43.562 26.258V31.625L43.56 31.628Z" fill="#3B3B3B"/>
<path fill-rule="evenodd" clip-rule="evenodd" d="M10.942 31.106L0 0.520996H6.617L14.433 23.134L21.884 0.520996H28.449L17.559 31.106H10.942Z" fill="#3B3B3B"/>
<path fill-rule="evenodd" clip-rule="evenodd" d="M130.001 0.520996L140.943 31.106H134.326L126.51 8.49301L119.059 31.106H112.494L123.332 0.520996H130.001Z" fill="#3B3B3B"/>
</g>
<path d="M6.01714 58.5543C6.01714 60.84 6.88571 61.96 8.34857 61.96C9.72 61.96 10.8171 61.0229 10.8171 58.5543C10.8171 56.2457 9.81143 55.1486 8.34857 55.1486C6.88571 55.1486 6.01714 56.52 6.01714 58.5543ZM12.1657 58.5543C12.1657 61.6629 10.5429 63.24 8.37143 63.24C5.99429 63.24 4.55429 61.3657 4.55429 58.5543C4.55429 55.5371 5.92571 53.8686 8.37143 53.8686C9.21714 53.8686 9.97143 54.3029 10.6343 55.1486H10.8171V48.9543C10.8171 47.4686 10.5429 47.08 9.46857 47.08C8.46286 47.08 8.16571 47.6743 8.16571 49.0686V51.6514H7.02286V49.0686C7.02286 47.6743 6.84 47.08 5.74286 47.08C4.85143 47.08 4.50857 47.4 4.50857 48.4743V50.7829H3.22857V48.4057C3.22857 46.7829 4.00571 45.8914 5.58286 45.8914C6.52 45.8914 7.16 46.4171 7.52571 47.4914H7.64C8.07429 46.4171 8.69143 45.8914 9.49143 45.8914C11.2971 45.8914 12.1657 46.9886 12.1657 48.9771V58.5543ZM18.1137 53.8686C15.7137 53.8686 14.2965 55.4457 14.2965 58.2114C14.2965 59.72 14.7765 61.3657 15.7137 63.1257H17.0165C16.1708 61.2286 15.7594 59.56 15.7594 58.1657C15.7594 56.2229 16.5594 55.1486 18.1137 55.1486C19.6451 55.1486 20.4451 56.2229 20.4451 58.1657C20.4451 59.72 20.0108 61.3657 19.1422 63.1257H20.4451C21.4279 61.5029 21.9079 59.88 21.9079 58.2114C21.9079 55.4457 20.4908 53.8686 18.1137 53.8686ZM34.5544 58.44C34.5544 56.4971 33.7087 55.1486 32.3373 55.1486C30.943 55.1486 30.0973 56.1771 30.0973 58.5543C30.0973 61.0229 30.9658 61.96 32.3144 61.96C32.8401 61.96 33.343 61.7086 33.823 61.2057C34.303 60.7029 34.5544 59.7886 34.5544 58.44ZM28.6344 58.5543C28.6344 57.7543 28.7716 57 29.0687 56.2914C28.5658 55.5371 27.9487 55.1486 27.2173 55.1486C26.5087 55.1486 26.0058 55.5371 25.7087 56.2914C25.4116 57.0457 25.2516 57.8686 25.2516 58.8057C25.2516 61.9371 26.6001 64.04 29.183 65.3429C31.903 66.7371 33.4573 68.1771 33.8458 69.64H32.1316C31.6516 68.4743 31.1258 67.7429 30.5316 67.4229C29.9373 67.1029 29.2744 66.9429 28.5201 66.92C27.6973 66.9429 26.7601 67.08 25.7316 67.3771V65.96H27.9716V65.8686C25.2058 64.4057 23.7887 62.1657 23.7887 58.8057C23.7887 55.72 25.1144 53.8686 27.2401 53.8686C28.0858 53.8686 28.8401 54.3257 29.5487 55.24C30.2116 54.3257 31.1258 53.8686 32.3144 53.8686C33.3887 53.8686 34.2573 54.28 34.9658 55.1029C35.6744 55.9257 36.0173 57.0229 36.0173 58.3714C36.0173 59.9029 35.6516 61.0914 34.943 61.96C34.2344 62.8057 33.343 63.24 32.3144 63.24C31.2858 63.24 30.3944 62.8286 29.6858 62.0057C28.9773 61.16 28.6344 60.0171 28.6344 58.5543ZM45.1667 59.3086C45.1667 60.4743 44.8009 61.4343 44.0924 62.1657C43.3838 62.8743 42.5609 63.24 41.6009 63.24C40.5495 63.24 39.6581 62.8971 38.9495 62.1886C38.2409 61.48 37.8981 60.5657 37.8981 59.4686C37.8981 58.7143 38.2181 57.9143 38.8809 57.0686L39.8409 57.8686C39.5209 58.3029 39.3609 58.8286 39.3609 59.4686C39.3609 61.0914 40.2295 61.96 41.6009 61.96C42.9495 61.96 43.6809 61.1371 43.6809 59.3086C43.6809 58.1886 43.0638 57.16 41.8524 56.1771C40.6409 55.1943 40.0467 54.2343 40.0467 53.2514H41.4181C41.4181 54.0743 42.0352 54.9886 43.2924 55.9714C44.5495 56.9543 45.1667 58.0514 45.1667 59.3086ZM52.9605 64.7943C52.9605 66.0514 53.2576 66.9886 53.8519 67.6057C54.4691 68.2229 55.1319 68.52 55.8862 68.52C56.9148 68.52 57.6691 68.1543 58.1948 67.4229C58.7205 66.7143 58.9948 65.8229 58.9948 64.7943C58.9948 63.7886 58.6976 62.8971 58.1262 62.1429C57.5548 61.3657 56.8233 60.9771 55.9776 60.9771C54.1719 60.9771 52.9605 62.4171 52.9605 64.7943ZM60.4576 64.7943C60.4576 66.12 60.0233 67.2857 59.1319 68.2914C58.2633 69.2971 57.1891 69.8 55.8862 69.8C54.7433 69.8 53.7148 69.2971 52.8233 68.3143C51.9319 67.3314 51.4976 66.1429 51.4976 64.7943C51.4976 63.4 51.9091 62.2114 52.7548 61.2286C53.6005 60.2457 54.6519 59.7429 55.9548 59.7429C56.9376 58.8514 57.4405 57.7771 57.4405 56.5657C57.4405 55.6286 56.9148 54.9657 55.6119 54.9657C54.2633 54.9657 53.6919 55.4 53.6919 56.3829C53.6919 56.9543 53.8062 57.3429 54.0348 57.5486L53.0519 58.2114C52.6405 57.6171 52.4348 57.0229 52.4348 56.4286C52.4348 55.5829 52.7548 54.8971 53.3719 54.4171C54.0119 53.9371 54.7662 53.6857 55.6119 53.6857C57.4405 53.6857 58.8119 54.92 58.8119 56.5657C58.8119 57.8686 58.2633 58.9657 57.1433 59.8343C59.1319 60.6571 60.4576 62.2114 60.4576 64.7943ZM69.3776 59.3086C69.3776 60.4743 69.0119 61.4343 68.3033 62.1657C67.5947 62.8743 66.7719 63.24 65.8119 63.24C64.7604 63.24 63.869 62.8971 63.1604 62.1886C62.4519 61.48 62.109 60.5657 62.109 59.4686C62.109 58.7143 62.429 57.9143 63.0919 57.0686L64.0519 57.8686C63.7319 58.3029 63.5719 58.8286 63.5719 59.4686C63.5719 61.0914 64.4404 61.96 65.8119 61.96C67.1604 61.96 67.8919 61.1371 67.8919 59.3086C67.8919 58.1886 67.2747 57.16 66.0633 56.1771C64.8519 55.1943 64.2576 54.2343 64.2576 53.2514H65.629C65.629 54.0743 66.2462 54.9886 67.5033 55.9714C68.7604 56.9543 69.3776 58.0514 69.3776 59.3086ZM77.6268 58.5543C77.6268 56.36 76.6896 55.1486 75.3182 55.1486C73.7868 55.1486 72.8268 56.5429 72.8496 58.5543C72.8496 60.68 73.6496 61.96 75.2954 61.96C76.7811 61.96 77.6268 60.7257 77.6268 58.5543ZM79.1125 58.5543C79.1125 59.9257 78.7468 61.0457 78.0382 61.9371C77.3296 62.8057 76.4154 63.24 75.2954 63.24C72.9411 63.24 71.4782 61.5486 71.4782 58.5543V48.9771C71.4782 47.1943 72.4611 46.3029 74.4496 46.3029H76.5982C77.1925 46.3029 77.4896 46.1429 77.4896 45.8457H78.7925C78.7925 46.9657 78.0611 47.5143 76.5982 47.5143H74.1525C73.2611 47.5143 72.8268 47.9943 72.8268 48.9771V55.1486H73.0554C73.5811 54.3029 74.3125 53.8686 75.2954 53.8686C76.5982 53.8686 77.5582 54.3257 78.1754 55.24C78.7925 56.1543 79.1125 57.2514 79.1125 58.5543ZM88.5876 65.7543C88.5876 68.4057 87.2848 69.8 84.7933 69.8C83.6733 69.8 82.7591 69.4343 82.0505 68.68C81.3419 67.9486 80.9762 67.0114 80.9762 65.8686C80.9762 64.6571 81.4562 63.6971 82.4391 62.9429L83.1933 63.72C82.6905 64.2457 82.4391 64.9771 82.4391 65.8686C82.4391 67.5829 83.4448 68.52 84.7933 68.52C86.5305 68.52 87.1248 67.6514 87.1248 65.7543V64.1543C87.1248 63.56 86.9876 62.9886 86.6905 62.44C86.3933 61.8914 86.0276 61.6171 85.5476 61.6171H84.4276V60.4971H85.5476C86.3933 60.4971 87.1248 59.4914 87.1248 57.2971C87.1248 55.9943 86.3933 55.1486 84.9305 55.1486C83.5591 55.1486 82.8276 55.7886 82.8276 57.3429C82.8276 57.7771 82.9648 58.2114 83.2619 58.6686L82.1191 59.3314C81.6848 58.6 81.4562 57.9371 81.4562 57.3657C81.4562 55.0571 82.9876 53.8686 84.9076 53.8686C87.1933 53.8686 88.5876 55.2857 88.5876 57.32C88.5876 59.08 87.8791 60.2914 86.4848 60.9543V61.1371C87.8791 61.9829 88.5876 63.0343 88.5876 64.2686V65.7543ZM97.737 59.3086C97.737 60.4743 97.3712 61.4343 96.6627 62.1657C95.9541 62.8743 95.1313 63.24 94.1712 63.24C93.1198 63.24 92.2284 62.8971 91.5198 62.1886C90.8113 61.48 90.4684 60.5657 90.4684 59.4686C90.4684 58.7143 90.7884 57.9143 91.4512 57.0686L92.4112 57.8686C92.0913 58.3029 91.9313 58.8286 91.9313 59.4686C91.9313 61.0914 92.7998 61.96 94.1712 61.96C95.5198 61.96 96.2513 61.1371 96.2513 59.3086C96.2513 58.1886 95.6341 57.16 94.4227 56.1771C93.2113 55.1943 92.617 54.2343 92.617 53.2514H93.9884C93.9884 54.0743 94.6055 54.9886 95.8627 55.9714C97.1198 56.9543 97.737 58.0514 97.737 59.3086ZM110.375 58.44C110.375 56.4971 109.529 55.1486 108.158 55.1486C106.763 55.1486 105.918 56.1771 105.918 58.5543C105.918 61.0229 106.786 61.96 108.135 61.96C108.66 61.96 109.163 61.7086 109.643 61.2057C110.123 60.7029 110.375 59.7886 110.375 58.44ZM104.455 58.5543C104.455 57.7543 104.592 57 104.889 56.2914C104.386 55.5371 103.769 55.1486 103.038 55.1486C102.329 55.1486 101.826 55.5371 101.529 56.2914C101.232 57.0457 101.072 57.8686 101.072 58.8057C101.072 61.9371 102.42 64.04 105.003 65.3429C107.723 66.7371 109.278 68.1771 109.666 69.64H107.952C107.472 68.4743 106.946 67.7429 106.352 67.4229C105.758 67.1029 105.095 66.9429 104.34 66.92C103.518 66.9429 102.58 67.08 101.552 67.3771V65.96H103.792V65.8686C101.026 64.4057 99.609 62.1657 99.609 58.8057C99.609 55.72 100.935 53.8686 103.06 53.8686C103.906 53.8686 104.66 54.3257 105.369 55.24C106.032 54.3257 106.946 53.8686 108.135 53.8686C109.209 53.8686 110.078 54.28 110.786 55.1029C111.495 55.9257 111.838 57.0229 111.838 58.3714C111.838 59.9029 111.472 61.0914 110.763 61.96C110.055 62.8057 109.163 63.24 108.135 63.24C107.106 63.24 106.215 62.8286 105.506 62.0057C104.798 61.16 104.455 60.0171 104.455 58.5543ZM121.33 65.8914C121.33 67.1714 120.941 68.1314 120.164 68.7943C119.41 69.4571 118.518 69.8 117.536 69.8C116.507 69.8 115.593 69.4571 114.838 68.7486C114.084 68.0629 113.718 67.1029 113.718 65.8686C113.718 64.7029 114.198 63.7429 115.181 62.9429L115.936 63.7886C115.364 64.2686 115.067 64.9771 115.067 65.8686C115.067 67.7657 116.233 68.52 117.536 68.52C118.976 68.52 119.867 67.56 119.867 65.8914V57.2057C119.867 55.8114 118.907 55.1486 117.97 55.1486C116.484 55.1486 115.867 56.0171 115.867 57.1143C115.867 57.9143 116.05 58.5543 116.416 59.0343L115.433 59.8571C114.816 59.0571 114.518 58.1657 114.518 57.1371C114.518 55.2171 115.798 53.8686 117.878 53.8686C119.89 53.8686 121.33 55.1029 121.33 57.2057V65.8914ZM124.908 58.5543C124.908 60.7714 125.914 61.96 127.262 61.96C128.794 61.96 129.594 60.8171 129.594 58.5543C129.594 56.4514 128.816 55.1486 127.285 55.1486C125.616 55.1486 124.908 56.4514 124.908 58.5543ZM125.502 46.1429C125.525 46.8514 126.142 47.72 127.399 48.7714C128.656 49.8229 128.931 51.5143 128.222 53.8686C128.954 54.0743 129.616 54.5314 130.188 55.2857C130.759 56.04 131.056 57.1143 131.056 58.5543C131.056 61.4571 129.525 63.24 127.262 63.24C124.999 63.24 123.445 61.48 123.445 58.5543C123.445 55.7886 124.519 54.1429 126.874 53.8457C127.674 51.7657 127.399 50.2343 126.051 49.2514C124.725 48.2686 124.062 47.24 124.085 46.1429H125.502ZM140.206 59.3086C140.206 60.4743 139.84 61.4343 139.131 62.1657C138.423 62.8743 137.6 63.24 136.64 63.24C135.589 63.24 134.697 62.8971 133.989 62.1886C133.28 61.48 132.937 60.5657 132.937 59.4686C132.937 58.7143 133.257 57.9143 133.92 57.0686L134.88 57.8686C134.56 58.3029 134.4 58.8286 134.4 59.4686C134.4 61.0914 135.269 61.96 136.64 61.96C137.989 61.96 138.72 61.1371 138.72 59.3086C138.72 58.1886 138.103 57.16 136.891 56.1771C135.68 55.1943 135.086 54.2343 135.086 53.2514H136.457C136.457 54.0743 137.074 54.9886 138.331 55.9714C139.589 56.9543 140.206 58.0514 140.206 59.3086Z" fill="#3B3B3B"/>
<defs>
<clipPath id="clip0">
<rect width="144.278" height="69.203" fill="white"/>
</clipPath>
</defs>
</svg>
