<svg xmlns="http://www.w3.org/2000/svg" width="75.23" height="36.084" viewBox="0 0 75.23 36.084">
  <g id="logo_volta" data-name="logo volta" transform="translate(-166.4 -355.9)">
    <path id="path4" d="M340.327,372.848V359.59H335.6V356.9h12.661v2.69h-4.7v13.258Z" transform="translate(-123.231 -0.728)" fill="#1a1a1a" fill-rule="evenodd"/>
    <path id="path6" d="M295.2,373.212V357.4h3.206v13.122h8.015v2.69Z" transform="translate(-93.807 -1.092)" fill="#1a1a1a" fill-rule="evenodd"/>
    <path id="path8" d="M230.772,372.391a7.22,7.22,0,0,1-5.053-2.146,8.2,8.2,0,0,1-2.119-5.977,10.306,10.306,0,0,1,.734-4.13,6.911,6.911,0,0,1,1.494-2.173,5.814,5.814,0,0,1,2.065-1.44,8.593,8.593,0,0,1,3.45-.625,7.553,7.553,0,0,1,5.651,2.173,9.809,9.809,0,0,1,.027,12.144,6.576,6.576,0,0,1-4.782,2.146,1.549,1.549,0,0,1-.353.027V369.62H232c2.418-.136,4.537-3.45,3.8-5.515h-1.766v-4.646H232.81V364.1h-3.124v-4.646h-1.114V364.1h-1.63c-1.032,0,.353,5.053,3.831,5.488v2.8Z" transform="translate(-41.66)" fill="#1a1a1a" fill-rule="evenodd"/>
    <path id="path10" d="M172.105,372.848,166.4,356.9h3.45l4.075,11.791,3.885-11.791h3.423l-5.678,15.948Z" transform="translate(0 -0.728)" fill="#1a1a1a" fill-rule="evenodd"/>
    <path id="path12" d="M419.257,455.249c0,3.152-1.467,4.754-4.428,4.754a5.093,5.093,0,0,1-1.929-.353,4.451,4.451,0,0,1-1.413-1.005,3.716,3.716,0,0,1-.815-1.467,5.51,5.51,0,0,1-.272-1.793v-.652a2.4,2.4,0,0,1,.109-.734c.081-.217.163-.489.272-.761.136-.272.272-.516.435-.815.163-.272.353-.543.543-.815l1.82.9a5.779,5.779,0,0,0-.571,1.3,2.262,2.262,0,0,0-.19.869v.706a3.674,3.674,0,0,0,.109,1.005,2.184,2.184,0,0,0,.353.761,1.786,1.786,0,0,0,.625.462,2.535,2.535,0,0,0,.978.163,2.2,2.2,0,0,0,.9-.163,1.065,1.065,0,0,0,.625-.462,2.068,2.068,0,0,0,.38-.815,4.1,4.1,0,0,0,.136-1.223v-1.06a3.613,3.613,0,0,0-.163-1.141,4.481,4.481,0,0,0-.435-.978,6.356,6.356,0,0,0-.652-.842c-.217-.272-.489-.516-.734-.815-.272-.272-.543-.571-.815-.869a8.1,8.1,0,0,1-.706-.978,3.914,3.914,0,0,1-.489-1.141,4.151,4.151,0,0,1-.19-1.331V444.3h2.282v1.657a2.079,2.079,0,0,0,.163.815,3.632,3.632,0,0,0,.408.788c.163.217.353.489.571.734.19.217.435.489.652.734V449c.3.326.625.679.924,1.032a6.919,6.919,0,0,1,.815,1.114,5.87,5.87,0,0,1,.6,1.331,5,5,0,0,1,.19,1.6Z" transform="translate(-177.709 -68.699)" fill="#1a1a1a" fill-rule="evenodd"/>
    <path id="path14" d="M370.619,454.425a5.57,5.57,0,0,1-.245,1.521,5.671,5.671,0,0,1-1.576,2.5,7.027,7.027,0,0,1-1.2.869,5.64,5.64,0,0,1-1.331.516,5.193,5.193,0,0,1-1.413.19,6.547,6.547,0,0,1-1.44-.19,7.388,7.388,0,0,1-1.358-.516,6.1,6.1,0,0,1-1.168-.842,5.448,5.448,0,0,1-.951-1.141,5.128,5.128,0,0,1-.625-1.358,4.965,4.965,0,0,1-.217-1.549V451.6a5.984,5.984,0,0,1,.353-2.119,5.927,5.927,0,0,1,2.472-3.043,5.4,5.4,0,0,1,1.739-.734c-.136-.245-.245-.489-.38-.761-.136-.245-.217-.435-.3-.543h3.559l-.516,1.277a5.669,5.669,0,0,1,1.739.734,5.574,5.574,0,0,1,1.494,1.277,5.407,5.407,0,0,1,1.032,1.766,5.591,5.591,0,0,1,.408,2.146Zm-2.391-2.826a4.421,4.421,0,0,0-.652-2.581,3.056,3.056,0,0,0-1.82-1.168c.027.489.054,1.005.082,1.521s.054,1.06.081,1.576.054,1.06.081,1.576c.027.489.054,1.005.082,1.494h-2.527l.3-6.14a3.783,3.783,0,0,0-.951.435,3.608,3.608,0,0,0-.788.788,4,4,0,0,0-.489,1.087,4.956,4.956,0,0,0-.163,1.467v2.826a3.408,3.408,0,0,0,.245,1.25,3.364,3.364,0,0,0,1.766,1.9,3.278,3.278,0,0,0,1.413.3,3.668,3.668,0,0,0,1.358-.272,3.543,3.543,0,0,0,1.087-.761,3.321,3.321,0,0,0,.679-1.114,3.5,3.5,0,0,0,.272-1.3Z" transform="translate(-140.346 -68.771)" fill="#1a1a1a" fill-rule="evenodd"/>
    <path id="path16" d="M304.11,450.259a3.372,3.372,0,0,1-.136.978,6.557,6.557,0,0,1-.353,1.114,10.866,10.866,0,0,1-.543,1.141,7.464,7.464,0,0,1-.706,1.087,5.694,5.694,0,0,1-.842.951,5.937,5.937,0,0,1-.951.734L299,454.8a6.2,6.2,0,0,0,1.141-1.087,8.225,8.225,0,0,0,.842-1.223,5.453,5.453,0,0,0,.543-1.25,3.249,3.249,0,0,0,.163-1.06v-1.2a4.235,4.235,0,0,0-.109-1.06,3.214,3.214,0,0,0-.326-.761,2.549,2.549,0,0,0-.489-.462,1.239,1.239,0,0,0-.6-.163,1.663,1.663,0,0,0-.815.163,1.071,1.071,0,0,0-.516.462,2.508,2.508,0,0,0-.245.679,7.738,7.738,0,0,0-.054.842v2.853h-2.309v-2.853a8.229,8.229,0,0,0-.054-.842,4.343,4.343,0,0,0-.217-.706,1.1,1.1,0,0,0-.435-.489,1.18,1.18,0,0,0-.734-.163,1.5,1.5,0,0,0-.706.163,1.927,1.927,0,0,0-.435.489,2.49,2.49,0,0,0-.217.679,3.945,3.945,0,0,0-.082.815v2.907H291.07v-2.907a8.153,8.153,0,0,0-.027-.815,2.483,2.483,0,0,0-.19-.679,1.345,1.345,0,0,0-.489-.462,1.829,1.829,0,0,0-.869-.163,1.3,1.3,0,0,0-.734.217,1.443,1.443,0,0,0-.489.571,2.52,2.52,0,0,0-.272.869,6.351,6.351,0,0,0-.109,1.06l.027,1.331a4.8,4.8,0,0,0,.353,1.875,5.017,5.017,0,0,0,.978,1.63,9.192,9.192,0,0,0,1.521,1.358,9.055,9.055,0,0,0,1.983,1.005,12.26,12.26,0,0,0,2.336.625,13.15,13.15,0,0,0,2.554.19h1.875v2.391H297.7a17.069,17.069,0,0,1-3.641-.353,11.7,11.7,0,0,1-2.988-.978,11.532,11.532,0,0,1-2.391-1.494,9.227,9.227,0,0,1-1.712-1.875,8.4,8.4,0,0,1-1.087-2.146,9.118,9.118,0,0,1-.38-2.228v-1.386a8.737,8.737,0,0,1,.217-1.929,4.507,4.507,0,0,1,.706-1.549,3.454,3.454,0,0,1,1.223-1.032,4.1,4.1,0,0,1,1.82-.38,3.7,3.7,0,0,1,.815.109,4.163,4.163,0,0,1,.734.3,6.046,6.046,0,0,1,.652.516,3.473,3.473,0,0,1,.571.761,3.714,3.714,0,0,1,1.06-1.3,2.446,2.446,0,0,1,1.494-.462,2.48,2.48,0,0,1,1.467.462,4.044,4.044,0,0,1,1.141,1.277,4.23,4.23,0,0,1,1.3-1.223,3.041,3.041,0,0,1,1.467-.435,4.137,4.137,0,0,1,1.549.3,3.35,3.35,0,0,1,1.25.869,3.5,3.5,0,0,1,.842,1.413,5.99,5.99,0,0,1,.3,1.929Z" transform="translate(-86.742 -68.626)" fill="#1a1a1a" fill-rule="evenodd"/>
    <path id="path18" d="M187.23,456.31a4.823,4.823,0,0,1-.272,1.494,3.709,3.709,0,0,1-.815,1.223,3.838,3.838,0,0,1-1.413.842,4.969,4.969,0,0,1-1.9.326,5.2,5.2,0,0,1-1.929-.353,4.16,4.16,0,0,1-1.386-.869,3.951,3.951,0,0,1-.842-1.223,4.03,4.03,0,0,1-.272-1.358v-.761a2.852,2.852,0,0,1,.082-.652,3.006,3.006,0,0,1,.19-.706,2.649,2.649,0,0,1,.408-.706,6.119,6.119,0,0,1,.571-.652l1.956.9a2.846,2.846,0,0,0-.679,1.005,2.577,2.577,0,0,0-.163.869v.571a1.342,1.342,0,0,0,.136.652,1.243,1.243,0,0,0,.38.543,1.537,1.537,0,0,0,.652.38,2.2,2.2,0,0,0,.9.163,2.118,2.118,0,0,0,1.549-.489,1.576,1.576,0,0,0,.489-1.223v-1.521a4.979,4.979,0,0,0-.054-.571,3.5,3.5,0,0,0-.163-.571,1.136,1.136,0,0,0-.3-.462.517.517,0,0,0-.462-.19H182.5v-2.2h1.386a.58.58,0,0,0,.462-.217,1.283,1.283,0,0,0,.272-.543,2.527,2.527,0,0,0,.136-.652c0-.217.027-.435.027-.6v-.435a1.931,1.931,0,0,0-.109-.543,1.842,1.842,0,0,0-.353-.489,1.262,1.262,0,0,0-.543-.353,1.98,1.98,0,0,0-.815-.136,1.658,1.658,0,0,0-.761.136,1.62,1.62,0,0,0-.571.3,1.314,1.314,0,0,0-.353.435.9.9,0,0,0-.136.435v.652c.027.109.027.19.054.3a1.136,1.136,0,0,0,.109.272,2.069,2.069,0,0,1,.19.353l-1.739.924c-.163-.217-.353-.435-.489-.6a3.394,3.394,0,0,1-.3-.489,1.159,1.159,0,0,1-.163-.489,3.391,3.391,0,0,1-.054-.571V448a2.684,2.684,0,0,1,.3-1.2,3.261,3.261,0,0,1,.842-1.087,4.99,4.99,0,0,1,1.331-.815,4.806,4.806,0,0,1,1.712-.3,5.212,5.212,0,0,1,1.82.3,3.808,3.808,0,0,1,1.331.815,3.584,3.584,0,0,1,.788,1.141,3.9,3.9,0,0,1,.272,1.358v.625a5.039,5.039,0,0,1-.027.6,2.817,2.817,0,0,1-.136.761,4.932,4.932,0,0,1-.353.815,3.481,3.481,0,0,1-.761.815,3.023,3.023,0,0,1,.788.761,4.1,4.1,0,0,1,.408.761,3.558,3.558,0,0,1,.163.734v2.228Z" transform="translate(-8.74 -68.917)" fill="#1a1a1a" fill-rule="evenodd"/>
    <path id="path20" d="M391.429,356.9l5.705,15.948h-3.45l-4.075-11.791-3.885,11.791H382.3l5.651-15.948Z" transform="translate(-157.243 -0.728)" fill="#1a1a1a" fill-rule="evenodd"/>
    <path id="path22" d="M230.772,460.318a7.337,7.337,0,0,1-5.053-2.146,8.264,8.264,0,0,1-2.119-6,10.167,10.167,0,0,1,.734-4.1,7.025,7.025,0,0,1,1.494-2.2,6.6,6.6,0,0,1,2.065-1.44,8.593,8.593,0,0,1,3.45-.625,7.553,7.553,0,0,1,5.651,2.173,9.809,9.809,0,0,1,.027,12.144,6.5,6.5,0,0,1-4.782,2.173h-.353V457.52H232c2.418-.136,4.537-3.45,3.8-5.488h-1.766v-4.646H232.81v4.673h-3.124v-4.673h-1.114v4.673h-1.63c-1.032,0,.353,5.053,3.831,5.461v2.8Z" transform="translate(-41.66 -68.334)" fill="#1a1a1a" fill-rule="evenodd"/>
  </g>
</svg>
