<svg xmlns="http://www.w3.org/2000/svg" width="38.031" height="24.057" viewBox="0 0 38.031 24.057">
  <g id="shipped" transform="translate(0 -94.062)">
    <g id="Group_2821" data-name="Group 2821" transform="translate(0 94.062)">
      <g id="Group_2820" data-name="Group 2820" transform="translate(0 0)">
        <path id="Path_184" data-name="Path 184" d="M35.369,104.261l-.985-3.939a.6.6,0,0,0,.471-.582V99.1a2.5,2.5,0,0,0-2.5-2.5H27.869v-1.31a1.232,1.232,0,0,0-1.231-1.231H3.771a1.232,1.232,0,0,0-1.231,1.231v10.8a.6.6,0,1,0,1.191,0v-10.8a.04.04,0,0,1,.04-.04H26.638a.04.04,0,0,1,.04.04v10.8a.6.6,0,1,0,1.191,0v-.675H34.9a1.949,1.949,0,0,1,1.85,1.35H34.9a.6.6,0,0,0-.6.6v1.27a1.868,1.868,0,0,0,1.866,1.866h.675v2.62H35.283a3.77,3.77,0,0,0-7.128,0h-.287v-4.486a.6.6,0,0,0-1.191,0v4.486H14.322a3.77,3.77,0,0,0-7.128,0H3.771a.04.04,0,0,1-.04-.04v-1.31h2.58a.6.6,0,0,0,0-1.191H.6a.6.6,0,0,0,0,1.191H2.541v1.31a1.232,1.232,0,0,0,1.231,1.231H6.988c0,.013,0,.026,0,.04a3.771,3.771,0,1,0,7.543,0c0-.013,0-.026,0-.04h13.42c0,.013,0,.026,0,.04a3.771,3.771,0,1,0,7.543,0c0-.013,0-.026,0-.04h1.946a.6.6,0,0,0,.6-.6v-6.352A3.141,3.141,0,0,0,35.369,104.261Zm-7.5-6.467h4.486a1.312,1.312,0,0,1,1.31,1.31v.04h-5.8Zm0,6.431v-3.89H33.16l.973,3.89Zm-17.11,12.7a2.58,2.58,0,1,1,2.58-2.58A2.583,2.583,0,0,1,10.758,116.928Zm20.961,0a2.58,2.58,0,1,1,2.58-2.58A2.583,2.583,0,0,1,31.719,116.928Zm5.121-7.622h-.675a.676.676,0,0,1-.675-.675v-.675h1.35v1.35Z" transform="translate(0 -94.062)" fill="#fff"/>
      </g>
    </g>
    <g id="Group_2823" data-name="Group 2823" transform="translate(9.528 113.117)">
      <g id="Group_2822" data-name="Group 2822" transform="translate(0 0)">
        <path id="Path_185" data-name="Path 185" d="M129.5,350.6a1.231,1.231,0,1,0,1.231,1.231A1.232,1.232,0,0,0,129.5,350.6Z" transform="translate(-128.267 -350.597)" fill="#fff"/>
      </g>
    </g>
    <g id="Group_2825" data-name="Group 2825" transform="translate(30.489 113.117)">
      <g id="Group_2824" data-name="Group 2824" transform="translate(0 0)">
        <path id="Path_186" data-name="Path 186" d="M411.686,350.6a1.231,1.231,0,1,0,1.231,1.231A1.232,1.232,0,0,0,411.686,350.6Z" transform="translate(-410.455 -350.597)" fill="#fff"/>
      </g>
    </g>
    <g id="Group_2827" data-name="Group 2827" transform="translate(15.244 110.577)">
      <g id="Group_2826" data-name="Group 2826" transform="translate(0 0)">
        <path id="Path_187" data-name="Path 187" d="M214.715,316.393h-8.893a.6.6,0,0,0,0,1.191h8.893a.6.6,0,1,0,0-1.191Z" transform="translate(-205.227 -316.393)" fill="#fff"/>
      </g>
    </g>
    <g id="Group_2829" data-name="Group 2829" transform="translate(1.27 108.036)">
      <g id="Group_2828" data-name="Group 2828" transform="translate(0 0)">
        <path id="Path_188" data-name="Path 188" d="M25.32,282.188H17.7a.6.6,0,1,0,0,1.191H25.32a.6.6,0,1,0,0-1.191Z" transform="translate(-17.102 -282.188)" fill="#fff"/>
      </g>
    </g>
    <g id="Group_2831" data-name="Group 2831" transform="translate(10.798 99.779)">
      <g id="Group_2830" data-name="Group 2830">
        <path id="Path_189" data-name="Path 189" d="M155.279,171.2a.6.6,0,0,0-.842,0l-5.3,5.3-2.755-2.755a.6.6,0,0,0-.842.842l3.176,3.176a.6.6,0,0,0,.842,0l5.717-5.717A.6.6,0,0,0,155.279,171.2Z" transform="translate(-145.37 -171.023)" fill="#fff"/>
      </g>
    </g>
  </g>
</svg>
