<svg xmlns="http://www.w3.org/2000/svg" width="12.158" height="12.159" viewBox="0 0 12.158 12.159">
  <g id="vent" transform="translate(0 0.001)">
    <g id="Group_2664" data-name="Group 2664" transform="translate(7.979 6.079)">
      <path id="Path_110" data-name="Path 110" d="M17.143,16.179a1.394,1.394,0,0,1-1.393-1.393V12.38a.38.38,0,0,1,.76,0v2.406a.634.634,0,0,0,.633.633.38.38,0,0,1,0,.76Z" transform="translate(-15.75 -12)"/>
    </g>
    <g id="Group_2665" data-name="Group 2665" transform="translate(2.406 6.079)">
      <path id="Path_111" data-name="Path 111" d="M5.13,16.179a.38.38,0,0,1,0-.76.634.634,0,0,0,.633-.633V12.38a.38.38,0,0,1,.76,0v2.406A1.394,1.394,0,0,1,5.13,16.179Z" transform="translate(-4.75 -12)"/>
    </g>
    <g id="Group_2666" data-name="Group 2666" transform="translate(5.699 4.306)">
      <path id="Path_112" data-name="Path 112" d="M11.63,13.439a.38.38,0,0,1-.38-.38V8.88a.38.38,0,0,1,.76,0v4.179A.38.38,0,0,1,11.63,13.439Z" transform="translate(-11.25 -8.5)"/>
    </g>
    <g id="Group_2667" data-name="Group 2667" transform="translate(4.939 3.926)">
      <path id="Path_113" data-name="Path 113" d="M11.649,9.27a.377.377,0,0,1-.268-.111l-.491-.491-.491.491a.38.38,0,0,1-.537-.537l.76-.76a.38.38,0,0,1,.537,0l.76.76a.38.38,0,0,1-.268.648Z" transform="translate(-9.749 -7.75)"/>
    </g>
    <g id="Group_2668" data-name="Group 2668" transform="translate(7.219 5.952)">
      <path id="Path_114" data-name="Path 114" d="M16.149,13.269a.377.377,0,0,1-.268-.111l-.491-.491-.491.491a.38.38,0,0,1-.537-.537l.76-.76a.38.38,0,0,1,.537,0l.76.76a.38.38,0,0,1-.268.649Z" transform="translate(-14.249 -11.749)"/>
    </g>
    <g id="Group_2669" data-name="Group 2669" transform="translate(2.659 5.952)">
      <path id="Path_115" data-name="Path 115" d="M7.149,13.269a.377.377,0,0,1-.268-.111l-.491-.491-.491.491a.38.38,0,0,1-.537-.537l.76-.76a.38.38,0,0,1,.537,0l.76.76a.38.38,0,0,1-.268.649Z" transform="translate(-5.249 -11.749)"/>
    </g>
    <g id="Group_2670" data-name="Group 2670" transform="translate(0 -0.001)">
      <path id="Path_116" data-name="Path 116" d="M9.5,12.158H2.66a1.141,1.141,0,0,1-1.14-1.14V6.585H.633A.634.634,0,0,1,.189,5.5L5.816.105A.38.38,0,0,1,6.336.1L8.105,1.731V.886a.38.38,0,0,1,.38-.38h1.773a.38.38,0,0,1,.38.38V4.192L11.968,5.5a.641.641,0,0,1,.19.453.634.634,0,0,1-.633.633h-.887v4.433A1.141,1.141,0,0,1,9.5,12.158ZM.947,5.825H1.9a.38.38,0,0,1,.38.38v4.813a.38.38,0,0,0,.38.38H9.5a.38.38,0,0,0,.38-.38V6.205a.38.38,0,0,1,.38-.38h.958l-1.224-1.2a.379.379,0,0,1-.114-.271V1.266H8.865V2.6a.38.38,0,0,1-.638.279L6.084.9Z" transform="translate(0 0.001)"/>
    </g>
  </g>
</svg>
