<svg xmlns="http://www.w3.org/2000/svg" width="16.229" height="16.228" viewBox="0 0 16.229 16.228">
  <path id="Icon_awesome-facebook-messenger" data-name="Icon awesome-facebook-messenger" d="M8.695.563A7.84,7.84,0,0,0,.563,8.434a7.693,7.693,0,0,0,2.554,5.822c.273.246.217.388.263,1.905a.652.652,0,0,0,.912.575c1.731-.762,1.753-.823,2.047-.743,5.016,1.38,10.452-1.829,10.452-7.559A7.81,7.81,0,0,0,8.695.563ZM13.578,6.62,11.189,10.4a1.223,1.223,0,0,1-1.764.325L7.525,9.3a.491.491,0,0,0-.589,0L4.372,11.249a.386.386,0,0,1-.56-.513L6.2,6.955A1.222,1.222,0,0,1,7.965,6.63l1.9,1.422a.491.491,0,0,0,.589,0l2.566-1.943a.385.385,0,0,1,.559.511Z" transform="translate(-0.563 -0.563)" fill="#fff"/>
</svg>
