<svg xmlns="http://www.w3.org/2000/svg" width="22.5" height="15.577" viewBox="0 0 22.5 15.577">
  <g id="Icon_ionic-ios-mail" data-name="Icon ionic-ios-mail" transform="translate(-3.375 -7.875)">
    <path id="Path_171" data-name="Path 171" d="M25.691,10.347l-5.82,5.928a.1.1,0,0,0,0,.151l4.073,4.338a.7.7,0,0,1,0,1,.705.705,0,0,1-1,0l-4.056-4.322a.111.111,0,0,0-.157,0l-.99,1.006a4.355,4.355,0,0,1-3.1,1.309,4.442,4.442,0,0,1-3.169-1.347l-.952-.968a.111.111,0,0,0-.157,0L6.306,21.759a.705.705,0,0,1-1,0,.7.7,0,0,1,0-1l4.073-4.338a.115.115,0,0,0,0-.151L3.559,10.347a.107.107,0,0,0-.184.076V22.284a1.736,1.736,0,0,0,1.731,1.731H24.144a1.736,1.736,0,0,0,1.731-1.731V10.423A.108.108,0,0,0,25.691,10.347Z" transform="translate(0 -0.563)" fill="#fff"/>
    <path id="Path_172" data-name="Path 172" d="M14.821,17.778a2.94,2.94,0,0,0,2.115-.887l8.486-8.638a1.7,1.7,0,0,0-1.071-.379H5.3a1.689,1.689,0,0,0-1.071.379l8.486,8.638A2.941,2.941,0,0,0,14.821,17.778Z" transform="translate(-0.196)" fill="#fff"/>
  </g>
</svg>
