<svg xmlns="http://www.w3.org/2000/svg" width="35.693" height="35.693" viewBox="0 0 35.693 35.693">
  <path id="Icon_ionic-ios-close-circle" data-name="Icon ionic-ios-close-circle" d="M21.222,3.375A17.847,17.847,0,1,0,39.068,21.222,17.844,17.844,0,0,0,21.222,3.375Zm4.522,24.308-4.522-4.522L16.7,27.683a1.371,1.371,0,1,1-1.939-1.939l4.522-4.522L14.761,16.7A1.371,1.371,0,0,1,16.7,14.761l4.522,4.522,4.522-4.522A1.371,1.371,0,0,1,27.683,16.7l-4.522,4.522,4.522,4.522a1.378,1.378,0,0,1,0,1.939A1.362,1.362,0,0,1,25.743,27.683Z" transform="translate(-3.375 -3.375)" fill="#fff"/>
</svg>
