<svg xmlns="http://www.w3.org/2000/svg" width="12.159" height="10.16" viewBox="0 0 12.159 10.16">
  <g id="tv-monitor" transform="translate(-5 -46.253)">
    <rect id="Rectangle_1732" data-name="Rectangle 1732" width="11.868" height="7.447" transform="translate(5.145 46.398)" fill="#6d7486"/>
    <path id="Path_117" data-name="Path 117" d="M197.213,359.8v1.088H194.22V359.73h2.993Z" transform="translate(-184.637 -305.884)" fill="#4a5160"/>
    <path id="Path_118" data-name="Path 118" d="M44.7,85.95v5.815H54.936V85.95Z" transform="translate(-38.738 -38.736)" fill="#fff"/>
    <path id="Path_119" data-name="Path 119" d="M249.287,188.123l-.777.583V187.54Z" transform="translate(-237.612 -137.865)" fill="#5fa8ed"/>
    <path id="Path_120" data-name="Path 120" d="M383.729,429.75h-.019a.727.727,0,0,0,1.453,0Z" transform="translate(-369.537 -374.209)" fill="#4689d3"/>
    <path id="Path_121" data-name="Path 121" d="M384.921,289.75h-.969a.242.242,0,0,0-.242.242v3.149h1.453v-3.149A.242.242,0,0,0,384.921,289.75Z" transform="translate(-369.537 -237.599)" fill="#6994fe"/>
    <path id="Path_122" data-name="Path 122" d="M44.7,85.95h.727v5.815H44.7Z" transform="translate(-38.738 -38.736)" fill="#fff"/>
    <path id="Path_123" data-name="Path 123" d="M384.291,429.75h-.581a.727.727,0,0,0,1.017.666A.727.727,0,0,1,384.291,429.75Z" transform="translate(-369.537 -374.209)" fill="#3e7fba"/>
    <path id="Path_124" data-name="Path 124" d="M384.291,293.141v-3.149a.242.242,0,0,1,.242-.242h-.581a.242.242,0,0,0-.242.242v3.149Z" transform="translate(-369.537 -237.599)" fill="#5987e2"/>
    <g id="Group_2671" data-name="Group 2671" transform="translate(5 46.253)">
      <circle id="Ellipse_51" data-name="Ellipse 51" cx="0.17" cy="0.17" r="0.17" transform="translate(9.439 7.641)" fill="#284268"/>
      <circle id="Ellipse_52" data-name="Ellipse 52" cx="0.17" cy="0.17" r="0.17" transform="translate(9.439 7.06)" fill="#284268"/>
      <circle id="Ellipse_53" data-name="Ellipse 53" cx="0.17" cy="0.17" r="0.17" transform="translate(9.439 8.271)" fill="#284268"/>
      <circle id="Ellipse_54" data-name="Ellipse 54" cx="0.17" cy="0.17" r="0.17" transform="translate(10.02 7.641)" fill="#284268"/>
      <circle id="Ellipse_55" data-name="Ellipse 55" cx="0.17" cy="0.17" r="0.17" transform="translate(10.02 7.06)" fill="#284268"/>
      <circle id="Ellipse_56" data-name="Ellipse 56" cx="0.17" cy="0.17" r="0.17" transform="translate(10.02 8.271)" fill="#284268"/>
      <circle id="Ellipse_57" data-name="Ellipse 57" cx="0.17" cy="0.17" r="0.17" transform="translate(9.439 6.334)" fill="#284268"/>
      <path id="Path_125" data-name="Path 125" d="M16.741,46.253H5.417A.418.418,0,0,0,5,46.67v6.9a.418.418,0,0,0,.417.417h4.02v.867H8.843a.145.145,0,0,0,0,.291h4.472a.145.145,0,1,0,0-.291h-.594v-.867h1.306v1.55a.872.872,0,1,0,1.744,0V53.991h.97a.418.418,0,0,0,.417-.417v-6.9A.418.418,0,0,0,16.741,46.253Zm-4.311,8.6h-2.7v-.867h2.7Zm3.05.538h-.172a.145.145,0,0,0,0,.291h.153a.581.581,0,0,1-1.126,0h.485a.145.145,0,1,0,0-.291h-.5v-3a.1.1,0,0,1,.1-.1h.969a.1.1,0,0,1,.1.1Zm1.388-1.823a.127.127,0,0,1-.127.127h-.97v-.526H16.2a.145.145,0,0,0,.145-.145V47.214a.145.145,0,0,0-.145-.145H7.965a.145.145,0,0,0,0,.291h8.087v5.524h-.281v-.491a.388.388,0,0,0-.388-.388h-.969a.388.388,0,0,0-.388.388v.491H6.107V47.36H7a.145.145,0,0,0,0-.291H5.962a.145.145,0,0,0-.145.145v5.815a.145.145,0,0,0,.145.145h8.066V53.7H5.417a.127.127,0,0,1-.127-.127v-6.9a.127.127,0,0,1,.127-.127H16.741a.127.127,0,0,1,.127.127Z" transform="translate(-5 -46.253)" fill="#284268"/>
      <path id="Path_126" data-name="Path 126" d="M289.19,239.645a.145.145,0,0,0-.2.027,1.232,1.232,0,0,1-.127.142.145.145,0,0,0,.2.21,1.52,1.52,0,0,0,.158-.176A.145.145,0,0,0,289.19,239.645Z" transform="translate(-281.94 -234.932)" fill="#284268"/>
      <path id="Path_127" data-name="Path 127" d="M195.34,152.444a1.505,1.505,0,0,0,.434-.064.145.145,0,0,0-.084-.278,1.213,1.213,0,1,1,.823-.849.145.145,0,0,0,.281.075,1.506,1.506,0,1,0-1.454,1.116Z" transform="translate(-189.261 -146.934)" fill="#284268"/>
      <path id="Path_128" data-name="Path 128" d="M243.518,182.151l-.777-.583a.145.145,0,0,0-.233.116v1.166a.145.145,0,0,0,.233.116l.777-.583a.145.145,0,0,0,0-.233Zm-.719.409v-.585l.39.292Z" transform="translate(-236.755 -178.262)" fill="#284268"/>
    </g>
  </g>
</svg>
