<svg xmlns="http://www.w3.org/2000/svg" width="13.068" height="7.928" viewBox="0 0 13.068 7.928">
  <g id="air-conditioner_3_" data-name="air-conditioner (3)" transform="translate(0 -100.486)">
    <path id="Path_100" data-name="Path 100" d="M19.458,269.815H8.227a.727.727,0,0,1-.727-.727v.691a.727.727,0,0,0,.727.727H19.458a.727.727,0,0,0,.727-.727v-.691A.727.727,0,0,1,19.458,269.815Z" transform="translate(-7.308 -164.289)" fill="#c4c4c4"/>
    <rect id="Rectangle_1730" data-name="Rectangle 1730" width="9.929" height="1.442" transform="translate(1.57 104.774)" fill="#66baea"/>
    <rect id="Rectangle_1731" data-name="Rectangle 1731" width="9.929" height="0.691" transform="translate(1.57 105.525)" fill="#3aaae4"/>
    <g id="Group_2662" data-name="Group 2662" transform="translate(0 100.486)">
      <path id="Path_101" data-name="Path 101" d="M12.15,100.486H3.107a.192.192,0,0,0,0,.384H12.15a.535.535,0,0,1,.535.535v4.085a.535.535,0,0,1-.535.535H11.69v-1.25a.192.192,0,0,0-.192-.192H1.57a.192.192,0,0,0-.192.192v1.25H.919a.535.535,0,0,1-.535-.535V101.4a.535.535,0,0,1,.535-.535H2.34a.192.192,0,0,0,0-.384H.919A.92.92,0,0,0,0,101.4v4.085a.92.92,0,0,0,.919.919h2a.192.192,0,0,0,0-.384H1.762v-.337H9.385a.192.192,0,1,0,0-.384H1.762v-.337h9.545v.337H10.153a.192.192,0,0,0,0,.384h1.154v.337H3.683a.192.192,0,1,0,0,.384H12.15a.92.92,0,0,0,.919-.919V101.4A.92.92,0,0,0,12.15,100.486Z" transform="translate(0 -100.486)"/>
      <path id="Path_102" data-name="Path 102" d="M420.619,146.851a.192.192,0,1,0,0-.384h-.567a.192.192,0,0,0,0,.384Z" transform="translate(-409.121 -145.291)"/>
      <path id="Path_103" data-name="Path 103" d="M247.506,146.851a.192.192,0,1,0,0-.384h-3.631a.192.192,0,0,0,0,.384Z" transform="translate(-237.45 -145.291)"/>
      <path id="Path_104" data-name="Path 104" d="M110.19,352.064a.192.192,0,0,0-.192.192,1.267,1.267,0,0,1-.538.953.192.192,0,1,0,.222.313,1.65,1.65,0,0,0,.7-1.265A.192.192,0,0,0,110.19,352.064Z" transform="translate(-106.582 -345.629)"/>
      <path id="Path_105" data-name="Path 105" d="M187.475,352.064a.192.192,0,0,0-.192.192v1.109a.192.192,0,1,0,.384,0v-1.109A.192.192,0,0,0,187.475,352.064Z" transform="translate(-182.493 -345.629)"/>
      <path id="Path_106" data-name="Path 106" d="M250.256,352.064a.192.192,0,0,0-.192.192v1.109a.192.192,0,0,0,.384,0v-1.109A.192.192,0,0,0,250.256,352.064Z" transform="translate(-243.668 -345.629)"/>
      <path id="Path_107" data-name="Path 107" d="M363.25,353.208a1.262,1.262,0,0,1-.538-.954.192.192,0,0,0-.384,0,1.65,1.65,0,0,0,.7,1.265.192.192,0,1,0,.222-.313Z" transform="translate(-353.06 -345.629)"/>
      <path id="Path_108" data-name="Path 108" d="M308.818,352.064a.192.192,0,0,0-.192.192v1.109a.192.192,0,0,0,.384,0v-1.109A.192.192,0,0,0,308.818,352.064Z" transform="translate(-300.732 -345.629)"/>
    </g>
  </g>
</svg>
