<svg xmlns="http://www.w3.org/2000/svg" width="18.788" height="18.784" viewBox="0 0 18.788 18.784">
  <path id="Icon_awesome-instagram" data-name="Icon awesome-instagram" d="M9.391,6.814a4.816,4.816,0,1,0,4.816,4.816A4.808,4.808,0,0,0,9.391,6.814Zm0,7.947a3.131,3.131,0,1,1,3.131-3.131,3.137,3.137,0,0,1-3.131,3.131Zm6.136-8.144A1.123,1.123,0,1,1,14.4,5.493,1.121,1.121,0,0,1,15.527,6.617Zm3.19,1.14A5.559,5.559,0,0,0,17.2,3.821,5.6,5.6,0,0,0,13.264,2.3c-1.551-.088-6.2-.088-7.75,0A5.587,5.587,0,0,0,1.578,3.817,5.577,5.577,0,0,0,.061,7.753c-.088,1.551-.088,6.2,0,7.75a5.559,5.559,0,0,0,1.517,3.936,5.6,5.6,0,0,0,3.936,1.517c1.551.088,6.2.088,7.75,0A5.559,5.559,0,0,0,17.2,19.438,5.6,5.6,0,0,0,18.717,15.5c.088-1.551.088-6.195,0-7.746Zm-2,9.41a3.17,3.17,0,0,1-1.786,1.786c-1.236.49-4.17.377-5.537.377s-4.3.109-5.537-.377a3.17,3.17,0,0,1-1.786-1.786c-.49-1.236-.377-4.17-.377-5.537s-.109-4.3.377-5.537A3.17,3.17,0,0,1,3.854,4.307c1.236-.49,4.17-.377,5.537-.377s4.3-.109,5.537.377a3.17,3.17,0,0,1,1.786,1.786c.49,1.236.377,4.17.377,5.537S17.2,15.934,16.713,17.166Z" transform="translate(0.005 -2.238)" fill="#fff"/>
</svg>
